<?xml version="1.0" encoding="UTF-8" standalone="no"?>
<svg
   xmlns:dc="http://purl.org/dc/elements/1.1/"
   xmlns:cc="http://creativecommons.org/ns#"
   xmlns:rdf="http://www.w3.org/1999/02/22-rdf-syntax-ns#"
   xmlns:svg="http://www.w3.org/2000/svg"
   xmlns="http://www.w3.org/2000/svg"
   xmlns:sodipodi="http://sodipodi.sourceforge.net/DTD/sodipodi-0.dtd"
   xmlns:inkscape="http://www.inkscape.org/namespaces/inkscape"
   sodipodi:docname="Incubus1997.svg"
   inkscape:version="1.0 (4035a4fb49, 2020-05-01)"
   id="svg864"
   version="1.1"
   viewBox="0 0 300 100"
   height="100mm"
   width="300mm">
  <defs
     id="defs858" />
  <sodipodi:namedview
     inkscape:window-maximized="0"
     inkscape:window-y="48"
     inkscape:window-x="858"
     inkscape:window-height="961"
     inkscape:window-width="1260"
     showgrid="false"
     inkscape:document-rotation="0"
     inkscape:current-layer="layer1"
     inkscape:document-units="mm"
     inkscape:cy="478.15971"
     inkscape:cx="363.48941"
     inkscape:zoom="0.7"
     inkscape:pageshadow="2"
     inkscape:pageopacity="0.0"
     borderopacity="1.0"
     bordercolor="#666666"
     pagecolor="#ffffff"
     id="base" />
  <metadata
     id="metadata861">
    <rdf:RDF>
      <cc:Work
         rdf:about="">
        <dc:format>image/svg+xml</dc:format>
        <dc:type
           rdf:resource="http://purl.org/dc/dcmitype/StillImage" />
        <dc:title></dc:title>
      </cc:Work>
    </rdf:RDF>
  </metadata>
  <g
     id="layer1"
     inkscape:groupmode="layer"
     inkscape:label="Capa 1">
    <path
       id="path847"
       d="m 19.776711,15.024909 -2.605878,11.62623 h 16.236624 l 2.873147,-11.62623 z"
       style="fill:#241f21;fill-opacity:1;stroke:#241f21;stroke-width:0.264583px;stroke-linecap:butt;stroke-linejoin:miter;stroke-opacity:1" />
    <path
       id="path1439"
       d="m 16.435841,31.061079 c 0,0 15.635269,-0.66817 13.764381,9.68852 -1.870887,10.3567 -9.020347,44.9681 -9.020347,44.9681 H 4.4087134 Z"
       style="fill:#241f21;fill-opacity:1;stroke:#241f21;stroke-width:0.264583px;stroke-linecap:butt;stroke-linejoin:miter;stroke-opacity:1" />
    <path
       sodipodi:nodetypes="cccscccccc"
       id="path1473"
       d="m 26.303783,85.633689 11.714073,-53.90443 h 28.664656 c 0,0 11.960313,0.4009 10.25647,10.55713 -1.703843,10.15624 -8.986004,43.37241 -8.986004,43.37241 H 51.133037 l 8.929272,-41.50629 h -8.409972 l -8.882438,41.51523 z"
       style="fill:#241f21;fill-opacity:1;stroke:#241f21;stroke-width:0.264583px;stroke-linecap:butt;stroke-linejoin:miter;stroke-opacity:1" />
    <path
       id="path1494"
       d="M 112.88673,31.662439 H 95.046491 c 0,0 -10.215541,-0.45676 -12.862345,9.42125 -2.646805,9.87801 -7.483547,35.48003 -7.483547,35.48003 0,0 -1.937705,8.95352 12.02713,8.95352 13.964831,0 14.900271,0 14.900271,0 l 2.53906,-12.29439 H 91.672215 l 6.147196,-29.39966 h 12.428029 z"
       style="fill:#241f21;fill-opacity:1;stroke:#231f21;stroke-width:0.264583px;stroke-linecap:butt;stroke-linejoin:miter;stroke-opacity:1" />
    <path
       sodipodi:nodetypes="sccccccccs"
       id="path1519"
       d="m 119.46824,85.584069 h 27.06105 l 11.49259,-53.72118 h -16.30345 l -9.02035,41.56041 h -8.68626 l 8.75307,-41.62723 h -16.50388 l -9.2208,43.89902 c 0,0 -2.80633,9.88898 12.42803,9.88898 z"
       style="fill:#241f21;fill-opacity:1;stroke:#241f21;stroke-width:0.264583px;stroke-linecap:butt;stroke-linejoin:miter;stroke-opacity:1" />
    <path
       id="path1544"
       d="m 181.25091,85.304649 c 0,0 11.57552,-0.80318 13.18192,-8.74068 1.60641,-7.93751 7.37054,-35.10454 7.37054,-35.10454 0,0 2.03163,-9.92188 -11.00855,-9.92188 -13.04017,0 -11.67002,0 -11.67002,0 l 3.40178,-15.96949 h -16.20573 l -15.35527,70.06733 z"
       style="fill:none;stroke:#241f21;stroke-width:0.264583px;stroke-linecap:butt;stroke-linejoin:miter;stroke-opacity:1" />
    <g
       transform="translate(31.336118,-87.005237)"
       id="g1571">
      <path
         style="fill:none;stroke:#241f21;stroke-width:0.264583px;stroke-linecap:butt;stroke-linejoin:miter;stroke-opacity:1"
         d="m 144.85603,131.01337 -6.00951,29.5488 h 8.75307 l 6.1472,-29.53328 z"
         id="path1546"
         sodipodi:nodetypes="ccccc" />
    </g>
    <path
       style="fill:#241f21;fill-opacity:1;fill-rule:evenodd;stroke:#241f21;stroke-width:0.265001;stroke-opacity:1"
       d="m 166.44924,15.689369 c -5.13108,23.22362 -10.16526,46.46953 -15.30641,69.69077 2.2532,0.16715 4.64216,0.0307 6.94777,0.0525 8.01835,-0.0959 16.03961,-0.14254 24.05443,-0.39706 4.01534,-0.60533 8.31273,-2.01554 10.80003,-5.43781 1.46374,-2.10261 1.56139,-4.76883 2.1967,-7.17512 2.05576,-9.99175 4.25842,-19.95398 6.24325,-29.95978 0.39192,-1.86774 0.59941,-3.88407 -0.24754,-5.66404 -1.20564,-2.94129 -4.32545,-4.55735 -7.35204,-4.89788 -4.60865,-0.44312 -9.25182,-0.18523 -13.87476,-0.27696 -0.27203,-0.0889 -0.80177,0.15199 -0.97004,-0.0869 1.16697,-5.2247 2.28468,-10.46265 3.37543,-15.70391 -0.84798,-0.19856 -1.86228,-0.0478 -2.76775,-0.11336 -4.36183,-0.0169 -8.76037,-0.10137 -13.09907,-0.0305 z m 14.22815,28.19135 c 1.50433,0.0741 3.06574,-0.11425 4.53878,0.15271 -2.06015,9.83573 -4.05192,19.70294 -6.17283,29.52091 -1.56477,0.28327 -3.21307,0.0605 -4.80805,0.12669 -1.4062,-0.006 -2.8124,-0.0123 -4.2186,-0.0185 2.01765,-9.93436 4.03876,-19.86804 6.05843,-29.80199 1.53409,0.007 3.06818,0.0134 4.60227,0.0201 z"
       id="path1566" />
    <path
       sodipodi:nodetypes="sccccccccs"
       id="path1519-1"
       d="m 211.53588,85.584069 h 27.06105 l 11.49258,-53.72118 h -16.30345 l -9.02033,41.56041 h -8.68626 l 8.75307,-41.62723 h -16.5039 l -9.2208,43.89902 c 0,0 -2.80633,9.88898 12.42804,9.88898 z"
       style="fill:#241f21;fill-opacity:1;stroke:#241f21;stroke-width:0.264583px;stroke-linecap:butt;stroke-linejoin:miter;stroke-opacity:1" />
    <path
       sodipodi:nodetypes="ccsccccccsccccc"
       id="path1609"
       d="m 249.0504,60.130599 4.15773,-19.66336 c 0,0 1.55915,-8.45722 13.51266,-8.45722 h 29.90735 l -2.97656,11.81175 h -25.32439 l -0.56697,4.34672 h 25.18267 l -5.43343,26.64732 c 0,0 -2.0316,10.72509 -15.26077,10.72509 h -28.58445 l 2.59859,-12.33147 h 25.2299 l 2.17336,-13.08743 z"
       style="fill:#241f21;fill-opacity:1;stroke:#222021;stroke-width:0.264583px;stroke-linecap:butt;stroke-linejoin:miter;stroke-opacity:1" />
  </g>
</svg>
